<svg version="1.1" id="Layer_1" xmlns="http://www.w3.org/2000/svg" xmlns:xlink="http://www.w3.org/1999/xlink" x="0px" y="0px"
	 width="100%" viewBox="0 0 851 245" enable-background="new 0 0 851 245" xml:space="preserve">
<path fill="#192531" opacity="1.000000" stroke="none" 
	d="
M609.000000,246.000000 
	C406.046173,246.000000 203.592361,246.000000 1.069269,246.000000 
	C1.069269,164.398193 1.069269,82.796303 1.069269,1.097205 
	C284.666656,1.097205 568.333313,1.097205 851.972229,1.097205 
	C851.972229,82.740944 851.972229,164.370483 851.972229,246.000000 
	C771.129639,246.000000 690.314819,246.000000 609.000000,246.000000 
M395.699036,157.780823 
	C397.879669,157.181885 400.046814,156.142548 402.243713,156.075455 
	C406.858215,155.934525 409.447418,154.171448 409.870178,149.615982 
	C424.023956,165.017700 444.548126,159.509567 449.444458,148.245911 
	C447.292236,146.550995 445.107513,144.830490 443.007965,143.177094 
	C431.909332,151.167053 425.120422,151.632919 418.734222,145.039948 
	C412.127502,138.219315 411.823029,125.996735 418.072571,118.480309 
	C424.260040,111.038544 430.047241,111.143295 442.947357,119.099419 
	C445.026917,117.465546 447.188660,115.767097 449.348663,114.070045 
	C440.545563,103.047836 430.514771,101.033539 415.048553,106.955185 
	C413.720642,106.980331 412.218414,106.605423 411.093140,107.095695 
	C403.929352,110.216949 399.102753,106.564758 394.284760,101.941353 
	C392.854767,100.569176 389.495758,99.054840 388.610840,99.720306 
	C386.830963,101.058746 386.144470,103.851234 384.687744,106.345947 
	C384.462799,106.537743 384.272369,106.759209 383.298889,107.003700 
	C380.105743,106.376511 376.912628,105.749313 372.839081,105.116760 
	C370.070282,105.116760 367.301483,105.116760 364.079132,105.116760 
	C364.079132,115.741776 364.237030,126.019753 364.026123,136.290161 
	C363.874023,143.696289 357.095703,149.684387 349.397705,149.704086 
	C343.274261,149.719757 339.461182,145.501541 338.650726,137.750641 
	C338.478271,136.101181 338.381042,134.436249 338.376312,132.778091 
	C338.350372,123.654251 338.363953,114.530304 338.363953,105.314552 
	C334.961884,105.314552 332.040314,105.314552 328.370300,105.314552 
	C328.370300,111.540527 328.298859,117.508766 328.390869,123.474480 
	C328.477997,129.123886 328.717743,134.771347 328.923340,140.418442 
	C329.512726,156.608170 344.479218,164.478348 358.283722,155.843445 
	C360.338776,154.557999 362.289154,153.105255 364.576416,151.531372 
	C365.042694,154.031326 365.394318,155.916718 365.790375,158.040359 
	C368.713440,158.040359 371.361969,158.040359 373.981201,158.710983 
	C374.420441,159.252914 374.961945,160.319260 375.283325,160.256622 
	C379.002472,159.531570 382.688324,158.635742 387.224670,157.897690 
	C389.804138,157.926407 392.383606,157.955139 395.699036,157.780823 
M183.500366,137.930756 
	C190.993912,137.948303 198.492462,137.806824 205.979172,138.042023 
	C210.595123,138.187027 212.113937,136.253342 212.043747,131.791031 
	C211.844696,119.138206 211.651840,106.470985 212.067291,93.829506 
	C212.244507,88.436562 210.278778,87.510139 205.486740,87.650337 
	C193.007034,88.015419 180.512711,87.910828 168.024139,87.930771 
	C162.246964,87.939995 160.999130,86.695900 161.016907,80.873688 
	C161.056580,67.885010 161.103439,54.895302 161.316498,41.908791 
	C161.389099,37.483555 159.769119,35.650288 155.162552,35.738068 
	C142.011292,35.988667 128.853592,35.894142 115.698647,35.971600 
	C114.257668,35.980083 112.818062,36.223728 111.015800,36.392120 
	C111.015800,50.501385 111.026566,64.292839 111.011955,78.084267 
	C111.002533,86.977440 110.089767,87.892494 101.399361,87.884941 
	C89.576149,87.874664 77.749237,88.026360 65.931686,87.761665 
	C61.674385,87.666306 60.044430,88.752678 60.123337,93.295418 
	C60.348835,106.277885 60.252895,119.270958 59.993126,132.254044 
	C59.905163,136.650146 61.480972,138.094025 65.804489,138.022583 
	C78.789948,137.807953 91.782951,138.048569 104.768349,137.832138 
	C109.582085,137.751923 111.228378,139.624695 111.123657,144.338150 
	C110.890678,154.824402 111.044075,165.319260 111.040894,175.810608 
	C111.039604,180.072250 111.040672,184.333893 111.040672,188.563766 
	C128.112061,188.563766 144.482162,188.563766 161.102341,188.563766 
	C161.102341,186.650085 161.104782,185.158340 161.101944,183.666580 
	C161.078552,171.343536 161.074020,159.020416 161.023361,146.697479 
	C160.987564,137.991455 161.106903,137.851746 170.011673,137.898666 
	C174.174606,137.920593 178.337662,137.920837 183.500366,137.930756 
M258.532623,144.935654 
	C271.249847,161.554489 287.214539,161.983856 305.431396,153.277237 
	C305.431396,160.385422 305.431396,166.559937 305.431396,172.960419 
	C318.316162,167.633408 320.321350,155.799606 310.428040,146.814240 
	C318.679657,133.448441 320.160767,126.477028 317.928772,111.508888 
	C315.740417,96.833427 305.864899,85.988220 291.811707,82.827400 
	C278.293427,79.786896 265.660583,84.804169 257.842102,97.917152 
	C248.762314,113.145653 249.588242,128.916687 258.532623,144.935654 
M560.035278,151.603943 
	C570.293762,144.292480 573.767578,133.711548 574.355286,121.770203 
	C575.269653,103.190781 565.647034,88.135269 548.649231,84.677475 
	C537.793823,82.469185 526.360107,83.103554 515.330078,82.471703 
	C515.330078,108.369240 515.330078,133.064941 515.330078,157.970001 
	C523.167664,157.970001 530.641785,158.048111 538.113525,157.948227 
	C545.718750,157.846573 552.883911,156.008057 560.035278,151.603943 
M488.643738,137.805710 
	C486.360382,134.364685 484.077057,130.923660 481.701904,127.344231 
	C488.009552,120.064690 494.169159,112.956001 500.493713,105.656952 
	C491.357300,103.457222 489.422180,104.069962 483.893585,110.351662 
	C478.600586,116.365654 473.248108,122.327316 467.921783,128.311981 
	C467.521454,128.138458 467.121094,127.964943 466.720764,127.791428 
	C466.720764,111.617950 466.720764,95.444481 466.720764,79.338913 
	C463.166870,79.338913 460.246582,79.338913 457.362061,79.338913 
	C457.362061,105.687614 457.362061,131.728088 457.362061,157.708313 
	C460.483246,157.708313 463.254059,157.708313 466.985779,157.708313 
	C466.985779,153.184677 466.728516,148.884109 467.053589,144.628021 
	C467.425140,139.763763 470.123993,136.498871 475.021362,134.964615 
	C478.994934,140.827652 482.794281,146.471756 486.633545,152.088577 
	C491.251648,158.844833 493.011536,159.440536 501.549255,156.962051 
	C497.321777,150.700745 493.174500,144.558273 488.643738,137.805710 
M777.019470,140.216827 
	C777.191040,139.573807 777.388123,138.936386 777.530334,138.286942 
	C780.503845,124.706764 774.349365,111.274612 762.729675,105.971153 
	C751.778503,100.972824 737.906982,104.399254 730.797913,113.858688 
	C723.056091,124.160080 723.808716,140.493942 732.481995,150.405060 
	C745.714050,165.525528 768.104492,160.789017 777.019470,140.216827 
M587.139648,149.309097 
	C591.574646,154.900406 597.293213,158.154221 604.414124,159.026794 
	C620.949219,161.052979 636.898254,146.910049 633.804565,126.082802 
	C631.766663,112.363884 618.746765,102.216866 605.847778,103.714462 
	C584.240051,106.223160 574.147583,129.976242 587.139648,149.309097 
M665.565918,159.154144 
	C674.291443,159.323441 681.226440,156.110168 686.192322,148.536621 
	C684.022888,146.548019 682.118103,144.801987 680.308594,143.143311 
	C668.092285,151.386017 661.580139,151.733521 655.111267,144.745178 
	C648.897522,138.032440 648.632324,125.523064 654.555786,118.543633 
	C660.820129,111.162582 666.978699,111.254478 679.226013,118.911850 
	C686.083618,115.002617 686.758423,111.925354 681.527161,108.418541 
	C671.998840,102.031151 660.020935,102.001541 651.157104,108.343521 
	C641.900085,114.966812 637.660522,127.654449 640.923889,138.968460 
	C644.353455,150.858841 653.126770,158.299469 665.565918,159.154144 
M711.587158,104.795189 
	C710.142517,104.709259 708.697876,104.623329 706.713623,104.505295 
	C706.713623,99.143433 706.713623,94.116272 706.713623,88.601753 
	C702.891357,89.606071 699.722900,90.438606 696.284302,91.342117 
	C696.284302,95.649628 696.284302,99.763687 696.284302,104.250839 
	C693.624084,104.646629 691.239990,105.001335 688.627197,105.390053 
	C688.824097,108.212341 689.004150,110.793358 689.177063,113.272491 
	C696.852905,114.723961 696.813538,114.723785 696.778931,122.551849 
	C696.750977,128.875397 696.673645,135.205093 696.898132,141.522095 
	C697.406372,155.824814 707.511963,162.293594 720.628723,157.004089 
	C720.628723,154.186920 720.628723,151.437225 720.628723,148.687347 
	C717.774780,148.816315 715.288452,149.109329 712.821167,148.994827 
	C709.672058,148.848724 707.149963,147.295013 707.088257,143.927933 
	C706.906311,134.000443 707.023315,124.067444 707.023315,113.776619 
	C711.605225,113.776619 715.701050,113.776619 719.709045,113.776619 
	C721.390076,106.083794 720.307739,104.804520 711.587158,104.795189 
M814.905884,105.804924 
	C812.400696,101.968277 808.954590,103.758430 806.222839,104.919754 
	C802.992554,106.292999 800.196350,108.687393 797.152588,110.677994 
	C796.638245,108.807144 796.158081,107.060463 795.690857,105.361069 
	C792.789246,105.361069 790.035278,105.361069 787.358215,105.361069 
	C787.358215,123.000336 787.358215,140.372375 787.358215,157.590317 
	C790.689148,157.590317 793.607605,157.590317 796.940430,157.590317 
	C796.940430,147.470490 796.864929,137.675476 796.965881,127.882286 
	C797.038391,120.851257 800.724731,116.327904 807.525757,114.719009 
	C809.757935,114.190926 812.062744,113.969604 814.908813,113.516571 
	C814.908813,111.283386 814.908813,108.995544 814.905884,105.804924 
M395.414520,91.862686 
	C397.880341,86.984390 397.703857,82.453552 394.036713,81.097885 
	C391.446136,80.140228 387.366425,80.521957 385.097565,82.029984 
	C381.908173,84.149872 382.179871,88.116661 384.370819,91.333176 
	C386.593018,94.595558 390.579407,94.924576 395.414520,91.862686 
z"/>
<path fill="#09BBE4" opacity="1.000000" stroke="none" 
	d="
M183.000519,137.930832 
	C178.337662,137.920837 174.174606,137.920593 170.011673,137.898666 
	C161.106903,137.851746 160.987564,137.991455 161.023361,146.697479 
	C161.074020,159.020416 161.078552,171.343536 161.101944,183.666580 
	C161.104782,185.158340 161.102341,186.650085 161.102341,188.563766 
	C144.482162,188.563766 128.112061,188.563766 111.040672,188.563766 
	C111.040672,184.333893 111.039604,180.072250 111.040894,175.810608 
	C111.044075,165.319260 110.890678,154.824402 111.123657,144.338150 
	C111.228378,139.624695 109.582085,137.751923 104.768349,137.832138 
	C91.782951,138.048569 78.789948,137.807953 65.804489,138.022583 
	C61.480972,138.094025 59.905163,136.650146 59.993126,132.254044 
	C60.252895,119.270958 60.348835,106.277885 60.123337,93.295418 
	C60.044430,88.752678 61.674385,87.666306 65.931686,87.761665 
	C77.749237,88.026360 89.576149,87.874664 101.399361,87.884941 
	C110.089767,87.892494 111.002533,86.977440 111.011955,78.084267 
	C111.026566,64.292839 111.015800,50.501385 111.015800,36.392120 
	C112.818062,36.223728 114.257668,35.980083 115.698647,35.971600 
	C128.853592,35.894142 142.011292,35.988667 155.162552,35.738068 
	C159.769119,35.650288 161.389099,37.483555 161.316498,41.908791 
	C161.103439,54.895302 161.056580,67.885010 161.016907,80.873688 
	C160.999130,86.695900 162.246964,87.939995 168.024139,87.930771 
	C180.512711,87.910828 193.007034,88.015419 205.486740,87.650337 
	C210.278778,87.510139 212.244507,88.436562 212.067291,93.829506 
	C211.651840,106.470985 211.844696,119.138206 212.043747,131.791031 
	C212.113937,136.253342 210.595123,138.187027 205.979172,138.042023 
	C198.492462,137.806824 190.993912,137.948303 183.000519,137.930832 
z"/>
<path fill="#EFF0F0" opacity="1.000000" stroke="none" 
	d="
M258.317688,144.642731 
	C249.588242,128.916687 248.762314,113.145653 257.842102,97.917152 
	C265.660583,84.804169 278.293427,79.786896 291.811707,82.827400 
	C305.864899,85.988220 315.740417,96.833427 317.928772,111.508888 
	C320.160767,126.477028 318.679657,133.448441 310.428040,146.814240 
	C320.321350,155.799606 318.316162,167.633408 305.431396,172.960419 
	C305.431396,166.559937 305.431396,160.385422 305.431396,153.277237 
	C287.214539,161.983856 271.249847,161.554489 258.317688,144.642731 
M266.521759,137.807205 
	C271.058533,145.400040 277.440277,149.775040 286.591583,149.006119 
	C295.636169,148.246155 301.508972,142.952866 305.098114,135.059967 
	C309.952972,124.383568 309.004120,113.645370 303.994934,103.343269 
	C300.450104,96.052826 294.201660,92.318001 286.019928,92.025070 
	C277.396942,91.716331 270.944489,95.262512 266.804169,102.883995 
	C260.661194,114.191910 260.251862,125.614746 266.521759,137.807205 
z"/>
<path fill="#F1F1F3" opacity="1.000000" stroke="none" 
	d="
M559.727539,151.800858 
	C552.883911,156.008057 545.718750,157.846573 538.113525,157.948227 
	C530.641785,158.048111 523.167664,157.970001 515.330078,157.970001 
	C515.330078,133.064941 515.330078,108.369240 515.330078,82.471703 
	C526.360107,83.103554 537.793823,82.469185 548.649231,84.677475 
	C565.647034,88.135269 575.269653,103.190781 574.355286,121.770203 
	C573.767578,133.711548 570.293762,144.292480 559.727539,151.800858 
M525.071960,133.493408 
	C525.071960,138.434204 525.071960,143.375000 525.071960,148.734238 
	C538.001709,147.412308 552.377319,150.953796 559.682983,136.788498 
	C565.489075,125.530838 566.248413,113.346474 558.433289,102.309654 
	C549.972473,90.360992 537.272888,93.112206 525.071655,93.201012 
	C525.071655,106.615303 525.071655,119.555664 525.071960,133.493408 
z"/>
<path fill="#EBEDEF" opacity="1.000000" stroke="none" 
	d="
M488.835480,138.110764 
	C493.174500,144.558273 497.321777,150.700745 501.549255,156.962051 
	C493.011536,159.440536 491.251648,158.844833 486.633545,152.088577 
	C482.794281,146.471756 478.994934,140.827652 475.021362,134.964615 
	C470.123993,136.498871 467.425140,139.763763 467.053589,144.628021 
	C466.728516,148.884109 466.985779,153.184677 466.985779,157.708313 
	C463.254059,157.708313 460.483246,157.708313 457.362061,157.708313 
	C457.362061,131.728088 457.362061,105.687614 457.362061,79.338913 
	C460.246582,79.338913 463.166870,79.338913 466.720764,79.338913 
	C466.720764,95.444481 466.720764,111.617950 466.720764,127.791428 
	C467.121094,127.964943 467.521454,128.138458 467.921783,128.311981 
	C473.248108,122.327316 478.600586,116.365654 483.893585,110.351662 
	C489.422180,104.069962 491.357300,103.457222 500.493713,105.656952 
	C494.169159,112.956001 488.009552,120.064690 481.701904,127.344231 
	C484.077057,130.923660 486.360382,134.364685 488.835480,138.110764 
z"/>
<path fill="#EEEFF0" opacity="1.000000" stroke="none" 
	d="
M776.942261,140.616516 
	C768.104492,160.789017 745.714050,165.525528 732.481995,150.405060 
	C723.808716,140.493942 723.056091,124.160080 730.797913,113.858688 
	C737.906982,104.399254 751.778503,100.972824 762.729675,105.971153 
	C774.349365,111.274612 780.503845,124.706764 777.530334,138.286942 
	C777.388123,138.936386 777.191040,139.573807 776.942261,140.616516 
M756.368774,149.307465 
	C762.464600,146.975616 765.970398,142.298752 767.622925,136.248047 
	C770.401367,126.075294 762.850220,113.556641 753.752258,112.955338 
	C747.333618,112.531120 741.858398,114.209930 738.493835,120.178490 
	C734.216003,127.767143 734.103882,135.382767 738.872986,142.790070 
	C742.812805,148.909286 748.449097,151.223892 756.368774,149.307465 
z"/>
<path fill="#EEEFF0" opacity="1.000000" stroke="none" 
	d="
M586.934326,149.010223 
	C574.147583,129.976242 584.240051,106.223160 605.847778,103.714462 
	C618.746765,102.216866 631.766663,112.363884 633.804565,126.082802 
	C636.898254,146.910049 620.949219,161.052979 604.414124,159.026794 
	C597.293213,158.154221 591.574646,154.900406 586.934326,149.010223 
M602.603149,149.318588 
	C610.813171,150.943741 616.733643,148.684250 620.717834,142.405319 
	C625.300232,135.183594 624.945557,125.111809 619.878113,118.559662 
	C614.348206,111.409592 603.244446,110.585571 596.968811,116.859528 
	C587.518555,126.307251 590.007568,142.691132 602.603149,149.318588 
z"/>
<path fill="#F1F2F4" opacity="1.000000" stroke="none" 
	d="
M374.010498,158.040359 
	C371.361969,158.040359 368.713440,158.040359 365.790375,158.040359 
	C365.394318,155.916718 365.042694,154.031326 364.576416,151.531372 
	C362.289154,153.105255 360.338776,154.557999 358.283722,155.843445 
	C344.479218,164.478348 329.512726,156.608170 328.923340,140.418442 
	C328.717743,134.771347 328.477997,129.123886 328.390869,123.474480 
	C328.298859,117.508766 328.370300,111.540527 328.370300,105.314552 
	C332.040314,105.314552 334.961884,105.314552 338.363953,105.314552 
	C338.363953,114.530304 338.350372,123.654251 338.376312,132.778091 
	C338.381042,134.436249 338.478271,136.101181 338.650726,137.750641 
	C339.461182,145.501541 343.274261,149.719757 349.397705,149.704086 
	C357.095703,149.684387 363.874023,143.696289 364.026123,136.290161 
	C364.237030,126.019753 364.079132,115.741776 364.079132,105.116760 
	C367.301483,105.116760 370.070282,105.116760 373.350677,105.575745 
	C373.911682,123.369942 373.961090,140.705154 374.010498,158.040359 
z"/>
<path fill="#EEEFF0" opacity="1.000000" stroke="none" 
	d="
M665.113525,159.127121 
	C653.126770,158.299469 644.353455,150.858841 640.923889,138.968460 
	C637.660522,127.654449 641.900085,114.966812 651.157104,108.343521 
	C660.020935,102.001541 671.998840,102.031151 681.527161,108.418541 
	C686.758423,111.925354 686.083618,115.002617 679.226013,118.911850 
	C666.978699,111.254478 660.820129,111.162582 654.555786,118.543633 
	C648.632324,125.523064 648.897522,138.032440 655.111267,144.745178 
	C661.580139,151.733521 668.092285,151.386017 680.308594,143.143311 
	C682.118103,144.801987 684.022888,146.548019 686.192322,148.536621 
	C681.226440,156.110168 674.291443,159.323441 665.113525,159.127121 
z"/>
<path fill="#EBECEE" opacity="1.000000" stroke="none" 
	d="
M415.918701,106.987442 
	C430.514771,101.033539 440.545563,103.047836 449.348663,114.070045 
	C447.188660,115.767097 445.026917,117.465546 442.947357,119.099419 
	C430.047241,111.143295 424.260040,111.038544 418.072571,118.480309 
	C411.823029,125.996735 412.127502,138.219315 418.734222,145.039948 
	C425.120422,151.632919 431.909332,151.167053 443.007965,143.177094 
	C445.107513,144.830490 447.292236,146.550995 449.444458,148.245911 
	C444.548126,159.509567 424.023956,165.017700 409.390686,149.169250 
	C405.419373,142.922379 403.383667,136.772308 403.566315,129.866150 
	C403.825104,120.079185 409.017639,113.108620 415.918701,106.987442 
z"/>
<path fill="#ECEDEE" opacity="1.000000" stroke="none" 
	d="
M712.043457,104.795212 
	C720.307739,104.804520 721.390076,106.083794 719.709045,113.776619 
	C715.701050,113.776619 711.605225,113.776619 707.023315,113.776619 
	C707.023315,124.067444 706.906311,134.000443 707.088257,143.927933 
	C707.149963,147.295013 709.672058,148.848724 712.821167,148.994827 
	C715.288452,149.109329 717.774780,148.816315 720.628723,148.687347 
	C720.628723,151.437225 720.628723,154.186920 720.628723,157.004089 
	C707.511963,162.293594 697.406372,155.824814 696.898132,141.522095 
	C696.673645,135.205093 696.750977,128.875397 696.778931,122.551849 
	C696.813538,114.723785 696.852905,114.723961 689.177063,113.272491 
	C689.004150,110.793358 688.824097,108.212341 688.627197,105.390053 
	C691.239990,105.001335 693.624084,104.646629 696.284302,104.250839 
	C696.284302,99.763687 696.284302,95.649628 696.284302,91.342117 
	C699.722900,90.438606 702.891357,89.606071 706.713623,88.601753 
	C706.713623,94.116272 706.713623,99.143433 706.713623,104.505295 
	C708.697876,104.623329 710.142517,104.709259 712.043457,104.795212 
z"/>
<path fill="#EDEEF0" opacity="1.000000" stroke="none" 
	d="
M814.907349,106.256317 
	C814.908813,108.995544 814.908813,111.283386 814.908813,113.516571 
	C812.062744,113.969604 809.757935,114.190926 807.525757,114.719009 
	C800.724731,116.327904 797.038391,120.851257 796.965881,127.882286 
	C796.864929,137.675476 796.940430,147.470490 796.940430,157.590317 
	C793.607605,157.590317 790.689148,157.590317 787.358215,157.590317 
	C787.358215,140.372375 787.358215,123.000336 787.358215,105.361069 
	C790.035278,105.361069 792.789246,105.361069 795.690857,105.361069 
	C796.158081,107.060463 796.638245,108.807144 797.152588,110.677994 
	C800.196350,108.687393 802.992554,106.292999 806.222839,104.919754 
	C808.954590,103.758430 812.400696,101.968277 814.907349,106.256317 
z"/>
<path fill="#2B363F" opacity="1.000000" stroke="none" 
	d="
M373.995850,158.375671 
	C373.961090,140.705154 373.911682,123.369942 373.790894,105.578430 
	C376.912628,105.749313 380.105743,106.376511 384.001770,107.260452 
	C385.025665,109.889519 385.577820,112.256790 385.629791,114.635002 
	C385.944336,129.017029 386.144562,143.401566 386.382996,157.785248 
	C382.688324,158.635742 379.002472,159.531570 375.283325,160.256622 
	C374.961945,160.319260 374.420441,159.252914 373.995850,158.375671 
z"/>
<path fill="#2E3942" opacity="1.000000" stroke="none" 
	d="
M415.483643,106.971313 
	C409.017639,113.108620 403.825104,120.079185 403.566315,129.866150 
	C403.383667,136.772308 405.419373,142.922379 409.076599,149.003662 
	C409.447418,154.171448 406.858215,155.934525 402.243713,156.075455 
	C400.046814,156.142548 397.879669,157.181885 395.448303,157.438309 
	C395.197540,139.794296 395.197540,122.492805 395.197540,104.491692 
	C391.382935,105.072662 388.194885,105.558205 385.006836,106.043747 
	C386.144470,103.851234 386.830963,101.058746 388.610840,99.720306 
	C389.495758,99.054840 392.854767,100.569176 394.284760,101.941353 
	C399.102753,106.564758 403.929352,110.216949 411.093140,107.095695 
	C412.218414,106.605423 413.720642,106.980331 415.483643,106.971313 
z"/>
<path fill="#F3F4F4" opacity="1.000000" stroke="none" 
	d="
M384.847290,106.194847 
	C388.194885,105.558205 391.382935,105.072662 395.197540,104.491692 
	C395.197540,122.492805 395.197540,139.794296 395.080322,157.539825 
	C392.383606,157.955139 389.804138,157.926407 386.803833,157.841476 
	C386.144562,143.401566 385.944336,129.017029 385.629791,114.635002 
	C385.577820,112.256790 385.025665,109.889519 384.410522,107.263763 
	C384.272369,106.759209 384.462799,106.537743 384.847290,106.194847 
z"/>
<path fill="#EAEBED" opacity="1.000000" stroke="none" 
	d="
M395.158539,92.178482 
	C390.579407,94.924576 386.593018,94.595558 384.370819,91.333176 
	C382.179871,88.116661 381.908173,84.149872 385.097565,82.029984 
	C387.366425,80.521957 391.446136,80.140228 394.036713,81.097885 
	C397.703857,82.453552 397.880341,86.984390 395.158539,92.178482 
z"/>
<path fill="#1F2B36" opacity="1.000000" stroke="none" 
	d="
M266.330383,137.482574 
	C260.251862,125.614746 260.661194,114.191910 266.804169,102.883995 
	C270.944489,95.262512 277.396942,91.716331 286.019928,92.025070 
	C294.201660,92.318001 300.450104,96.052826 303.994934,103.343269 
	C309.004120,113.645370 309.952972,124.383568 305.098114,135.059967 
	C301.508972,142.952866 295.636169,148.246155 286.591583,149.006119 
	C277.440277,149.775040 271.058533,145.400040 266.330383,137.482574 
z"/>
<path fill="#1F2B36" opacity="1.000000" stroke="none" 
	d="
M525.071777,132.994720 
	C525.071655,119.555664 525.071655,106.615303 525.071655,93.201012 
	C537.272888,93.112206 549.972473,90.360992 558.433289,102.309654 
	C566.248413,113.346474 565.489075,125.530838 559.682983,136.788498 
	C552.377319,150.953796 538.001709,147.412308 525.071960,148.734238 
	C525.071960,143.375000 525.071960,138.434204 525.071777,132.994720 
z"/>
<path fill="#222D38" opacity="1.000000" stroke="none" 
	d="
M755.990662,149.460449 
	C748.449097,151.223892 742.812805,148.909286 738.872986,142.790070 
	C734.103882,135.382767 734.216003,127.767143 738.493835,120.178490 
	C741.858398,114.209930 747.333618,112.531120 753.752258,112.955338 
	C762.850220,113.556641 770.401367,126.075294 767.622925,136.248047 
	C765.970398,142.298752 762.464600,146.975616 755.990662,149.460449 
z"/>
<path fill="#222E39" opacity="1.000000" stroke="none" 
	d="
M602.231079,149.183624 
	C590.007568,142.691132 587.518555,126.307251 596.968811,116.859528 
	C603.244446,110.585571 614.348206,111.409592 619.878113,118.559662 
	C624.945557,125.111809 625.300232,135.183594 620.717834,142.405319 
	C616.733643,148.684250 610.813171,150.943741 602.231079,149.183624 
z"/>
</svg>